<?xml version="1.0" standalone="no"?>
<!DOCTYPE svg PUBLIC "-//W3C//DTD SVG 20010904//EN"
 "http://www.w3.org/TR/2001/REC-SVG-20010904/DTD/svg10.dtd">
<svg version="1.0" xmlns="http://www.w3.org/2000/svg"
 width="924.000000pt" height="1025.000000pt" viewBox="0 0 924.000000 1025.000000"
 preserveAspectRatio="xMidYMid meet">

<g transform="translate(0.000000,1025.000000) scale(0.100000,-0.100000)"
fill="#000000" stroke="none">
<path d="M4358 10222 c-63 -22 -126 -77 -165 -143 -30 -51 -996 -2225 -1088
-2449 -139 -340 -211 -684 -222 -1060 -7 -244 -3 -292 83 -1040 73 -633 79
-756 45 -916 -40 -192 -134 -371 -269 -515 -46 -49 -189 -182 -318 -295 l-234
-206 -56 46 c-132 108 -244 149 -409 150 -126 0 -191 -15 -299 -72 -88 -46
-199 -155 -248 -243 -40 -71 -78 -192 -78 -249 0 -72 -5 -77 -81 -84 -152 -15
-278 -75 -384 -181 -124 -123 -185 -268 -185 -437 0 -115 14 -176 62 -276 21
-46 38 -87 36 -92 -2 -4 -106 -99 -233 -210 -126 -111 -241 -215 -254 -232
-32 -40 -41 -130 -17 -176 40 -77 137 -110 218 -75 26 12 139 103 277 224 128
112 239 207 246 211 9 5 189 -170 569 -553 306 -308 556 -564 556 -567 0 -4
-10 -18 -23 -32 -12 -14 -42 -50 -67 -80 -25 -30 -55 -66 -66 -80 -138 -163
-235 -284 -258 -324 -24 -41 -28 -56 -24 -103 5 -60 26 -95 79 -131 45 -31
129 -28 178 7 18 13 123 132 233 265 111 132 204 244 208 249 3 4 32 -4 62
-18 233 -106 514 -52 697 134 112 113 181 260 181 387 0 29 5 56 13 62 6 5 39
13 72 16 155 18 276 76 384 184 126 127 182 262 182 437 0 156 -48 288 -147
408 -42 51 -46 61 -36 78 7 11 159 196 339 412 502 602 541 655 645 868 29 60
56 109 60 109 4 0 35 -54 69 -121 112 -220 138 -255 613 -824 175 -209 320
-386 323 -393 3 -8 -14 -34 -39 -60 -152 -159 -211 -294 -210 -482 1 -170 59
-307 182 -430 110 -111 234 -171 385 -186 39 -4 73 -12 77 -18 4 -6 8 -34 8
-61 0 -28 9 -80 19 -117 58 -204 225 -371 430 -432 162 -48 358 -21 500 68 22
14 45 26 50 26 5 0 111 -123 235 -272 124 -150 238 -282 252 -292 15 -11 49
-21 76 -24 143 -14 228 129 155 258 -21 36 -153 202 -271 340 -65 76 -186 229
-186 235 0 8 1101 1115 1109 1115 3 0 129 -108 279 -240 293 -257 326 -278
404 -266 50 8 102 45 124 88 26 50 15 137 -22 181 -16 19 -146 138 -289 263
-143 125 -263 231 -266 237 -4 5 7 43 23 84 41 109 49 255 19 370 -29 115 -81
204 -169 291 -107 106 -229 163 -381 178 -76 7 -81 12 -81 84 0 57 -38 178
-78 249 -49 89 -160 197 -248 243 -107 55 -173 71 -299 72 -150 0 -243 -29
-358 -111 -27 -19 -53 -31 -60 -26 -35 21 -415 363 -484 437 -217 229 -319
526 -292 852 5 60 35 343 68 629 81 702 85 753 78 995 -12 393 -79 710 -227
1070 -102 248 -1064 2408 -1092 2453 -78 122 -246 180 -376 130 -40 -15 -47
-15 -96 0 -66 21 -157 21 -218 -1z m82 -1087 l-1 -658 -42 -51 c-23 -28 -52
-62 -65 -76 -35 -38 -181 -244 -244 -345 -158 -254 -286 -565 -347 -845 -62
-285 -79 -587 -37 -672 40 -83 160 -118 240 -69 56 35 79 81 83 170 18 360 45
523 125 756 25 74 140 321 186 400 43 75 95 155 101 155 3 0 5 -802 4 -1782
-2 -1749 -4 -1889 -34 -1984 -5 -17 -9 -40 -9 -52 0 -11 -4 -31 -9 -44 -5 -13
-14 -43 -21 -68 -17 -63 -29 -99 -51 -147 -11 -24 -19 -46 -19 -49 0 -3 -19
-45 -42 -92 -40 -84 -125 -219 -195 -311 -38 -49 -105 -133 -113 -141 -3 -3
-25 -30 -50 -60 -25 -30 -47 -57 -50 -60 -3 -3 -25 -30 -50 -60 -25 -30 -47
-57 -50 -60 -3 -3 -25 -30 -50 -60 -25 -30 -55 -66 -66 -80 -12 -14 -88 -105
-169 -202 l-147 -177 -439 436 c-242 241 -438 442 -437 448 2 6 44 46 93 90
50 44 92 82 95 85 3 3 75 67 160 141 85 75 175 159 200 186 146 161 248 336
315 539 76 227 87 428 45 789 -5 44 -14 123 -20 175 -6 52 -15 131 -20 175 -5
44 -14 122 -19 173 -19 165 -32 275 -41 357 -23 194 -31 370 -25 515 6 148 11
194 36 355 24 144 95 410 138 510 5 11 18 41 30 67 12 26 21 50 21 53 0 4 107
250 174 400 8 17 23 50 34 75 20 47 45 101 81 183 11 26 29 66 40 90 51 116
64 144 77 172 7 17 58 134 114 260 56 127 107 244 114 260 8 17 23 51 35 78
12 26 30 67 41 92 11 25 29 65 40 90 11 25 30 66 41 93 12 26 33 72 46 102 58
126 76 167 88 195 7 17 22 51 34 77 11 26 21 53 21 60 0 6 2 9 6 6 3 -3 5
-302 4 -663z m389 623 c33 -82 66 -154 123 -276 26 -57 48 -105 48 -107 0 -3
11 -28 24 -57 13 -29 33 -73 44 -98 28 -63 56 -127 81 -182 11 -27 30 -68 41
-93 11 -25 29 -65 40 -90 11 -25 28 -64 39 -87 10 -24 28 -64 40 -90 11 -27
31 -69 42 -95 12 -27 30 -68 41 -93 11 -25 29 -65 40 -90 11 -25 29 -65 40
-90 11 -25 28 -63 38 -85 10 -22 27 -61 39 -87 11 -27 31 -69 42 -95 12 -27
29 -66 39 -88 10 -22 27 -61 39 -87 44 -100 60 -135 91 -208 18 -41 43 -99 56
-127 61 -136 145 -427 173 -598 26 -165 30 -208 36 -365 6 -154 -1 -294 -24
-500 -6 -47 -15 -128 -21 -180 -6 -52 -15 -131 -20 -175 -5 -44 -14 -122 -19
-172 -19 -166 -32 -276 -41 -358 -42 -361 -31 -562 45 -789 67 -203 169 -378
315 -539 25 -27 115 -111 200 -186 85 -75 176 -155 202 -180 26 -24 56 -50 68
-58 11 -8 20 -20 20 -26 0 -11 -417 -430 -753 -757 l-118 -115 -26 30 c-14 17
-37 44 -52 60 -14 17 -43 52 -64 77 -21 26 -43 53 -50 60 -11 12 -81 97 -114
138 -7 8 -94 114 -195 235 -101 121 -207 252 -235 290 -58 77 -156 249 -191
335 -12 30 -26 64 -31 75 -21 44 -63 186 -81 270 -5 28 -15 73 -22 100 -9 37
-13 474 -15 1720 -2 919 -2 1742 -1 1829 l3 159 38 -57 c96 -145 217 -393 269
-551 65 -200 96 -383 107 -620 8 -191 15 -214 83 -262 79 -54 202 -22 245 65
41 84 19 430 -45 708 -94 406 -321 842 -624 1202 l-78 92 0 650 c0 358 3 650
8 650 4 0 13 -15 21 -32z m-2983 -6327 c41 -17 167 -139 787 -763 558 -561
744 -753 759 -788 78 -168 -14 -356 -196 -400 -68 -16 -147 -2 -210 38 -22 13
-368 352 -768 751 -826 824 -784 775 -776 921 4 60 10 87 31 123 76 129 233
179 373 118z m5670 8 c65 -24 129 -83 159 -144 11 -24 21 -69 23 -112 8 -139
46 -95 -775 -912 -401 -398 -746 -736 -768 -751 -140 -97 -333 -39 -415 124
-10 19 -15 59 -15 115 0 77 3 91 29 135 27 47 1360 1397 1470 1489 89 75 190
94 292 56z m-6320 -658 c41 -17 169 -141 782 -758 404 -406 745 -756 758 -779
57 -97 38 -248 -40 -329 -59 -60 -119 -85 -208 -85 -131 0 -93 -32 -910 781
-820 816 -788 779 -787 909 0 36 6 79 12 97 31 84 116 162 200 184 49 13 139
3 193 -20z m7002 -5 c62 -31 112 -89 136 -156 24 -67 18 -167 -14 -230 -31
-62 -1482 -1505 -1547 -1539 -36 -18 -61 -23 -117 -23 -86 0 -148 24 -203 79
-54 54 -76 106 -81 188 -8 136 -43 94 760 900 392 395 731 731 752 748 89 71
214 84 314 33z"/>
</g>
</svg>
