<svg width="679" height="256" viewBox="0 0 679 256" fill="none" xmlns="http://www.w3.org/2000/svg">
<path d="M146.812 139.188C146.812 137.562 146.562 136.104 146.062 134.812C145.604 133.479 144.729 132.271 143.438 131.188C142.146 130.062 140.333 128.958 138 127.875C135.667 126.792 132.646 125.667 128.938 124.5C124.812 123.167 120.896 121.667 117.188 120C113.521 118.333 110.271 116.396 107.438 114.188C104.646 111.938 102.438 109.333 100.812 106.375C99.2292 103.417 98.4375 99.9792 98.4375 96.0625C98.4375 92.2708 99.2708 88.8333 100.938 85.75C102.604 82.625 104.938 79.9583 107.938 77.75C110.938 75.5 114.479 73.7708 118.562 72.5625C122.688 71.3542 127.208 70.75 132.125 70.75C138.833 70.75 144.688 71.9583 149.688 74.375C154.688 76.7917 158.562 80.1042 161.312 84.3125C164.104 88.5208 165.5 93.3333 165.5 98.75H146.875C146.875 96.0833 146.312 93.75 145.188 91.75C144.104 89.7083 142.438 88.1042 140.188 86.9375C137.979 85.7708 135.188 85.1875 131.812 85.1875C128.562 85.1875 125.854 85.6875 123.688 86.6875C121.521 87.6458 119.896 88.9583 118.812 90.625C117.729 92.25 117.188 94.0833 117.188 96.125C117.188 97.6667 117.562 99.0625 118.312 100.312C119.104 101.562 120.271 102.729 121.812 103.812C123.354 104.896 125.25 105.917 127.5 106.875C129.75 107.833 132.354 108.771 135.312 109.688C140.271 111.188 144.625 112.875 148.375 114.75C152.167 116.625 155.333 118.729 157.875 121.062C160.417 123.396 162.333 126.042 163.625 129C164.917 131.958 165.562 135.312 165.562 139.062C165.562 143.021 164.792 146.562 163.25 149.688C161.708 152.812 159.479 155.458 156.562 157.625C153.646 159.792 150.167 161.438 146.125 162.562C142.083 163.688 137.562 164.25 132.562 164.25C128.062 164.25 123.625 163.667 119.25 162.5C114.875 161.292 110.896 159.479 107.312 157.062C103.771 154.646 100.938 151.562 98.8125 147.812C96.6875 144.062 95.625 139.625 95.625 134.5H114.438C114.438 137.333 114.875 139.729 115.75 141.688C116.625 143.646 117.854 145.229 119.438 146.438C121.062 147.646 122.979 148.521 125.188 149.062C127.438 149.604 129.896 149.875 132.562 149.875C135.812 149.875 138.479 149.417 140.562 148.5C142.688 147.583 144.25 146.312 145.25 144.688C146.292 143.062 146.812 141.229 146.812 139.188ZM231.062 132.812H249.75C249.375 138.938 247.688 144.375 244.688 149.125C241.729 153.875 237.583 157.583 232.25 160.25C226.958 162.917 220.583 164.25 213.125 164.25C207.292 164.25 202.062 163.25 197.438 161.25C192.812 159.208 188.854 156.292 185.562 152.5C182.312 148.708 179.833 144.125 178.125 138.75C176.417 133.375 175.562 127.354 175.562 120.688V114.375C175.562 107.708 176.438 101.688 178.188 96.3125C179.979 90.8958 182.521 86.2917 185.812 82.5C189.146 78.7083 193.125 75.7917 197.75 73.75C202.375 71.7083 207.542 70.6875 213.25 70.6875C220.833 70.6875 227.229 72.0625 232.438 74.8125C237.688 77.5625 241.75 81.3542 244.625 86.1875C247.542 91.0208 249.292 96.5208 249.875 102.688H231.125C230.917 99.0208 230.188 95.9167 228.938 93.375C227.688 90.7917 225.792 88.8542 223.25 87.5625C220.75 86.2292 217.417 85.5625 213.25 85.5625C210.125 85.5625 207.396 86.1458 205.062 87.3125C202.729 88.4792 200.771 90.25 199.188 92.625C197.604 95 196.417 98 195.625 101.625C194.875 105.208 194.5 109.417 194.5 114.25V120.688C194.5 125.396 194.854 129.542 195.562 133.125C196.271 136.667 197.354 139.667 198.812 142.125C200.312 144.542 202.229 146.375 204.562 147.625C206.938 148.833 209.792 149.438 213.125 149.438C217.042 149.438 220.271 148.812 222.812 147.562C225.354 146.312 227.292 144.458 228.625 142C230 139.542 230.812 136.479 231.062 132.812ZM322.75 109.062V123.688H275.25V109.062H322.75ZM280.812 72V163H262.062V72H280.812ZM336.125 72V163H317.438V72H336.125ZM413.5 148.375V163H365.062V148.375H413.5ZM371.188 72V163H352.438V72H371.188ZM407.188 109.062V123.312H365.062V109.062H407.188ZM413.438 72V86.6875H365.062V72H413.438ZM433 72H448.875L472.25 138.812L495.625 72H511.5L478.625 163H465.875L433 72ZM424.438 72H440.25L443.125 137.125V163H424.438V72ZM504.25 72H520.125V163H501.375V137.125L504.25 72ZM611.312 115.375V119.688C611.312 126.604 610.375 132.812 608.5 138.312C606.625 143.812 603.979 148.5 600.562 152.375C597.146 156.208 593.062 159.146 588.312 161.188C583.604 163.229 578.375 164.25 572.625 164.25C566.917 164.25 561.688 163.229 556.938 161.188C552.229 159.146 548.146 156.208 544.688 152.375C541.229 148.5 538.542 143.812 536.625 138.312C534.75 132.812 533.812 126.604 533.812 119.688V115.375C533.812 108.417 534.75 102.208 536.625 96.75C538.5 91.25 541.146 86.5625 544.562 82.6875C548.021 78.8125 552.104 75.8542 556.812 73.8125C561.562 71.7708 566.792 70.75 572.5 70.75C578.25 70.75 583.479 71.7708 588.188 73.8125C592.938 75.8542 597.021 78.8125 600.438 82.6875C603.896 86.5625 606.562 91.25 608.438 96.75C610.354 102.208 611.312 108.417 611.312 115.375ZM592.375 119.688V115.25C592.375 110.417 591.938 106.167 591.062 102.5C590.188 98.8333 588.896 95.75 587.188 93.25C585.479 90.75 583.396 88.875 580.938 87.625C578.479 86.3333 575.667 85.6875 572.5 85.6875C569.333 85.6875 566.521 86.3333 564.062 87.625C561.646 88.875 559.583 90.75 557.875 93.25C556.208 95.75 554.938 98.8333 554.062 102.5C553.188 106.167 552.75 110.417 552.75 115.25V119.688C552.75 124.479 553.188 128.729 554.062 132.438C554.938 136.104 556.229 139.208 557.938 141.75C559.646 144.25 561.729 146.146 564.188 147.438C566.646 148.729 569.458 149.375 572.625 149.375C575.792 149.375 578.604 148.729 581.062 147.438C583.521 146.146 585.583 144.25 587.25 141.75C588.917 139.208 590.188 136.104 591.062 132.438C591.938 128.729 592.375 124.479 592.375 119.688Z" fill="url(#paint0_linear_2012_71)"/>
<line x1="245.978" y1="202.312" x2="678.913" y2="199.935" stroke="black" stroke-width="8"/>
<path d="M637.935 87L632.935 240" stroke="black" stroke-width="8"/>
<path d="M1 44L459 41" stroke="black" stroke-width="8"/>
<path d="M64.5 0.0653076L67 163" stroke="black" stroke-width="8"/>
<path d="M446.547 230.883V232.68C446.547 234.815 446.28 236.729 445.746 238.422C445.212 240.115 444.444 241.553 443.441 242.738C442.439 243.923 441.234 244.828 439.828 245.453C438.435 246.078 436.872 246.391 435.141 246.391C433.461 246.391 431.918 246.078 430.512 245.453C429.118 244.828 427.908 243.923 426.879 242.738C425.863 241.553 425.076 240.115 424.516 238.422C423.956 236.729 423.676 234.815 423.676 232.68V230.883C423.676 228.747 423.949 226.84 424.496 225.16C425.056 223.467 425.844 222.029 426.859 220.844C427.875 219.646 429.079 218.734 430.473 218.109C431.879 217.484 433.422 217.172 435.102 217.172C436.833 217.172 438.396 217.484 439.789 218.109C441.195 218.734 442.4 219.646 443.402 220.844C444.418 222.029 445.193 223.467 445.727 225.16C446.273 226.84 446.547 228.747 446.547 230.883ZM442.816 232.68V230.844C442.816 229.151 442.641 227.654 442.289 226.352C441.951 225.049 441.449 223.956 440.785 223.07C440.121 222.185 439.307 221.514 438.344 221.059C437.393 220.603 436.312 220.375 435.102 220.375C433.93 220.375 432.868 220.603 431.918 221.059C430.98 221.514 430.173 222.185 429.496 223.07C428.832 223.956 428.318 225.049 427.953 226.352C427.589 227.654 427.406 229.151 427.406 230.844V232.68C427.406 234.385 427.589 235.896 427.953 237.211C428.318 238.513 428.839 239.613 429.516 240.512C430.206 241.397 431.02 242.068 431.957 242.523C432.908 242.979 433.969 243.207 435.141 243.207C436.365 243.207 437.452 242.979 438.402 242.523C439.353 242.068 440.154 241.397 440.805 240.512C441.469 239.613 441.97 238.513 442.309 237.211C442.647 235.896 442.816 234.385 442.816 232.68ZM455.258 229.379V246H451.645V224.867H455.062L455.258 229.379ZM454.398 234.633L452.895 234.574C452.908 233.129 453.122 231.794 453.539 230.57C453.956 229.333 454.542 228.259 455.297 227.348C456.052 226.436 456.951 225.733 457.992 225.238C459.047 224.73 460.212 224.477 461.488 224.477C462.53 224.477 463.467 224.62 464.301 224.906C465.134 225.18 465.844 225.622 466.43 226.234C467.029 226.846 467.484 227.641 467.797 228.617C468.109 229.581 468.266 230.759 468.266 232.152V246H464.633V232.113C464.633 231.007 464.47 230.121 464.145 229.457C463.819 228.78 463.344 228.292 462.719 227.992C462.094 227.68 461.326 227.523 460.414 227.523C459.516 227.523 458.695 227.712 457.953 228.09C457.224 228.467 456.592 228.988 456.059 229.652C455.538 230.316 455.128 231.078 454.828 231.938C454.542 232.784 454.398 233.682 454.398 234.633ZM482.523 246.391C481.052 246.391 479.717 246.143 478.52 245.648C477.335 245.141 476.312 244.431 475.453 243.52C474.607 242.608 473.956 241.527 473.5 240.277C473.044 239.027 472.816 237.66 472.816 236.176V235.355C472.816 233.637 473.07 232.107 473.578 230.766C474.086 229.411 474.776 228.266 475.648 227.328C476.521 226.391 477.51 225.681 478.617 225.199C479.724 224.717 480.87 224.477 482.055 224.477C483.565 224.477 484.867 224.737 485.961 225.258C487.068 225.779 487.973 226.508 488.676 227.445C489.379 228.37 489.9 229.464 490.238 230.727C490.577 231.977 490.746 233.344 490.746 234.828V236.449H474.965V233.5H487.133V233.227C487.081 232.289 486.885 231.378 486.547 230.492C486.221 229.607 485.701 228.878 484.984 228.305C484.268 227.732 483.292 227.445 482.055 227.445C481.234 227.445 480.479 227.621 479.789 227.973C479.099 228.311 478.507 228.819 478.012 229.496C477.517 230.173 477.133 231 476.859 231.977C476.586 232.953 476.449 234.079 476.449 235.355V236.176C476.449 237.178 476.586 238.122 476.859 239.008C477.146 239.88 477.556 240.648 478.09 241.312C478.637 241.977 479.294 242.497 480.062 242.875C480.844 243.253 481.729 243.441 482.719 243.441C483.995 243.441 485.076 243.181 485.961 242.66C486.846 242.139 487.621 241.443 488.285 240.57L490.473 242.309C490.017 242.999 489.438 243.656 488.734 244.281C488.031 244.906 487.165 245.414 486.137 245.805C485.121 246.195 483.917 246.391 482.523 246.391ZM509.203 217.562V246H505.434V217.562H509.203ZM521.117 230.355V233.441H508.383V230.355H521.117ZM523.051 217.562V220.648H508.383V217.562H523.051ZM525.609 235.668V235.219C525.609 233.695 525.831 232.283 526.273 230.98C526.716 229.665 527.354 228.526 528.188 227.562C529.021 226.586 530.03 225.831 531.215 225.297C532.4 224.75 533.728 224.477 535.199 224.477C536.684 224.477 538.018 224.75 539.203 225.297C540.401 225.831 541.417 226.586 542.25 227.562C543.096 228.526 543.741 229.665 544.184 230.98C544.626 232.283 544.848 233.695 544.848 235.219V235.668C544.848 237.191 544.626 238.604 544.184 239.906C543.741 241.208 543.096 242.348 542.25 243.324C541.417 244.288 540.408 245.043 539.223 245.59C538.051 246.124 536.723 246.391 535.238 246.391C533.754 246.391 532.419 246.124 531.234 245.59C530.049 245.043 529.034 244.288 528.188 243.324C527.354 242.348 526.716 241.208 526.273 239.906C525.831 238.604 525.609 237.191 525.609 235.668ZM529.223 235.219V235.668C529.223 236.723 529.346 237.719 529.594 238.656C529.841 239.581 530.212 240.401 530.707 241.117C531.215 241.833 531.846 242.4 532.602 242.816C533.357 243.22 534.236 243.422 535.238 243.422C536.228 243.422 537.094 243.22 537.836 242.816C538.591 242.4 539.216 241.833 539.711 241.117C540.206 240.401 540.577 239.581 540.824 238.656C541.085 237.719 541.215 236.723 541.215 235.668V235.219C541.215 234.177 541.085 233.194 540.824 232.27C540.577 231.332 540.199 230.505 539.691 229.789C539.197 229.06 538.572 228.487 537.816 228.07C537.074 227.654 536.202 227.445 535.199 227.445C534.21 227.445 533.337 227.654 532.582 228.07C531.84 228.487 531.215 229.06 530.707 229.789C530.212 230.505 529.841 231.332 529.594 232.27C529.346 233.194 529.223 234.177 529.223 235.219ZM552.992 228.188V246H549.379V224.867H552.895L552.992 228.188ZM559.594 224.75L559.574 228.109C559.275 228.044 558.988 228.005 558.715 227.992C558.454 227.966 558.155 227.953 557.816 227.953C556.983 227.953 556.247 228.083 555.609 228.344C554.971 228.604 554.431 228.969 553.988 229.438C553.546 229.906 553.194 230.466 552.934 231.117C552.686 231.755 552.523 232.458 552.445 233.227L551.43 233.812C551.43 232.536 551.553 231.339 551.801 230.219C552.061 229.099 552.458 228.109 552.992 227.25C553.526 226.378 554.203 225.701 555.023 225.219C555.857 224.724 556.846 224.477 557.992 224.477C558.253 224.477 558.552 224.509 558.891 224.574C559.229 224.626 559.464 224.685 559.594 224.75ZM583.93 220.082L574.516 246H570.668L581.508 217.562H583.988L583.93 220.082ZM591.82 246L582.387 220.082L582.328 217.562H584.809L595.688 246H591.82ZM591.332 235.473V238.559H575.355V235.473H591.332ZM602.875 216V246H599.242V216H602.875ZM612.602 216V246H608.969V216H612.602Z" fill="black"/>
<defs>
<linearGradient id="paint0_linear_2012_71" x1="354" y1="44" x2="354" y2="208" gradientUnits="userSpaceOnUse">
<stop stop-color="#9D3B00"/>
<stop offset="1" stop-color="#009F06"/>
</linearGradient>
</defs>
</svg>
